<svg width="197" height="31" viewBox="0 0 197 31" fill="none" xmlns="http://www.w3.org/2000/svg">
<path d="M9.593 24.33C7.635 24.33 5.952 24.033 4.544 23.439C3.136 22.845 2.069 22.064 1.343 21.096C0.617 20.128 0.232 19.083 0.188 17.961C0.188 17.763 0.254 17.598 0.386 17.466C0.518 17.334 0.683 17.268 0.881 17.268H3.818C4.082 17.268 4.28 17.323 4.412 17.433C4.566 17.521 4.709 17.675 4.841 17.895C5.061 18.643 5.567 19.27 6.359 19.776C7.151 20.282 8.229 20.535 9.593 20.535C11.155 20.535 12.332 20.282 13.124 19.776C13.916 19.248 14.312 18.522 14.312 17.598C14.312 16.982 14.103 16.476 13.685 16.08C13.289 15.684 12.684 15.343 11.87 15.057C11.078 14.771 9.89 14.419 8.306 14.001C5.71 13.385 3.807 12.571 2.597 11.559C1.409 10.525 0.815 9.062 0.815 7.17C0.815 5.894 1.156 4.761 1.838 3.771C2.542 2.781 3.543 2 4.841 1.428C6.161 0.855999 7.69 0.569999 9.428 0.569999C11.232 0.569999 12.794 0.888999 14.114 1.527C15.434 2.165 16.435 2.968 17.117 3.936C17.821 4.882 18.195 5.828 18.239 6.774C18.239 6.972 18.173 7.137 18.041 7.269C17.909 7.401 17.744 7.467 17.546 7.467H14.477C14.015 7.467 13.696 7.258 13.52 6.84C13.388 6.136 12.948 5.553 12.2 5.091C11.452 4.607 10.528 4.365 9.428 4.365C8.196 4.365 7.228 4.596 6.524 5.058C5.82 5.52 5.468 6.191 5.468 7.071C5.468 7.687 5.644 8.193 5.996 8.589C6.348 8.985 6.898 9.337 7.646 9.645C8.416 9.953 9.516 10.294 10.946 10.668C12.882 11.108 14.422 11.603 15.566 12.153C16.732 12.703 17.59 13.396 18.14 14.232C18.69 15.068 18.965 16.135 18.965 17.433C18.965 18.841 18.569 20.073 17.777 21.129C17.007 22.163 15.907 22.955 14.477 23.505C13.069 24.055 11.441 24.33 9.593 24.33ZM24.4299 4.002C24.2099 4.002 24.0229 3.925 23.8689 3.771C23.7149 3.617 23.6379 3.43 23.6379 3.21V0.833999C23.6379 0.613999 23.7149 0.426999 23.8689 0.272999C24.0229 0.118999 24.2099 0.0419996 24.4299 0.0419996H27.4329C27.6529 0.0419996 27.8399 0.118999 27.9939 0.272999C28.1699 0.426999 28.2579 0.613999 28.2579 0.833999V3.21C28.2579 3.43 28.1809 3.617 28.0269 3.771C27.8729 3.925 27.6749 4.002 27.4329 4.002H24.4299ZM24.5619 24C24.3419 24 24.1549 23.923 24.0009 23.769C23.8469 23.615 23.7699 23.428 23.7699 23.208V7.632C23.7699 7.412 23.8469 7.225 24.0009 7.071C24.1549 6.917 24.3419 6.84 24.5619 6.84H27.3009C27.5429 6.84 27.7299 6.917 27.8619 7.071C28.0159 7.203 28.0929 7.39 28.0929 7.632V23.208C28.0929 23.428 28.0159 23.615 27.8619 23.769C27.7299 23.923 27.5429 24 27.3009 24H24.5619ZM34.682 24C34.462 24 34.275 23.923 34.121 23.769C33.967 23.615 33.89 23.428 33.89 23.208V7.632C33.89 7.412 33.967 7.225 34.121 7.071C34.275 6.917 34.462 6.84 34.682 6.84H37.256C37.476 6.84 37.663 6.917 37.817 7.071C37.971 7.225 38.048 7.412 38.048 7.632V8.754C39.192 7.258 40.787 6.51 42.833 6.51C45.275 6.51 46.98 7.489 47.948 9.447C48.476 8.567 49.224 7.863 50.192 7.335C51.16 6.785 52.205 6.51 53.327 6.51C55.131 6.51 56.605 7.126 57.749 8.358C58.893 9.59 59.465 11.383 59.465 13.737V23.208C59.465 23.428 59.388 23.615 59.234 23.769C59.102 23.923 58.915 24 58.673 24H55.967C55.747 24 55.56 23.923 55.406 23.769C55.252 23.615 55.175 23.428 55.175 23.208V14.001C55.175 12.615 54.878 11.614 54.284 10.998C53.712 10.36 52.942 10.041 51.974 10.041C51.116 10.041 50.379 10.36 49.763 10.998C49.169 11.636 48.872 12.637 48.872 14.001V23.208C48.872 23.428 48.795 23.615 48.641 23.769C48.487 23.923 48.3 24 48.08 24H45.374C45.154 24 44.967 23.923 44.813 23.769C44.659 23.615 44.582 23.428 44.582 23.208V14.001C44.582 12.615 44.274 11.614 43.658 10.998C43.064 10.36 42.305 10.041 41.381 10.041C40.501 10.041 39.753 10.36 39.137 10.998C38.543 11.636 38.246 12.637 38.246 14.001V23.208C38.246 23.428 38.169 23.615 38.015 23.769C37.861 23.923 37.674 24 37.454 24H34.682ZM65.9114 30.27C65.6914 30.27 65.5044 30.193 65.3504 30.039C65.1964 29.907 65.1194 29.72 65.1194 29.478V7.632C65.1194 7.39 65.1964 7.203 65.3504 7.071C65.5044 6.917 65.6914 6.84 65.9114 6.84H68.5184C68.7604 6.84 68.9474 6.917 69.0794 7.071C69.2334 7.203 69.3104 7.39 69.3104 7.632V8.952C70.5424 7.324 72.3024 6.51 74.5904 6.51C76.8124 6.51 78.5174 7.214 79.7054 8.622C80.8934 10.008 81.5314 11.889 81.6194 14.265C81.6414 14.529 81.6524 14.914 81.6524 15.42C81.6524 15.948 81.6414 16.344 81.6194 16.608C81.5314 18.918 80.8934 20.788 79.7054 22.218C78.5174 23.626 76.8124 24.33 74.5904 24.33C72.3684 24.33 70.6744 23.549 69.5084 21.987V29.478C69.5084 29.72 69.4314 29.907 69.2774 30.039C69.1454 30.193 68.9584 30.27 68.7164 30.27H65.9114ZM73.3694 20.799C75.7454 20.799 77.0104 19.336 77.1644 16.41C77.1864 16.19 77.1974 15.86 77.1974 15.42C77.1974 14.98 77.1864 14.65 77.1644 14.43C77.0104 11.504 75.7454 10.041 73.3694 10.041C72.0934 10.041 71.1474 10.448 70.5314 11.262C69.9154 12.076 69.5744 13.077 69.5084 14.265L69.4754 15.519L69.5084 16.806C69.5524 17.906 69.8934 18.852 70.5314 19.644C71.1914 20.414 72.1374 20.799 73.3694 20.799ZM87.6009 24C87.3809 24 87.1939 23.923 87.0399 23.769C86.8859 23.615 86.8089 23.428 86.8089 23.208V1.362C86.8089 1.12 86.8859 0.932999 87.0399 0.801C87.1939 0.646999 87.3809 0.569999 87.6009 0.569999H90.3399C90.5819 0.569999 90.7689 0.646999 90.9009 0.801C91.0549 0.932999 91.1319 1.12 91.1319 1.362V23.208C91.1319 23.428 91.0549 23.615 90.9009 23.769C90.7689 23.923 90.5819 24 90.3399 24H87.6009ZM104.32 24.33C101.878 24.33 99.9313 23.626 98.4793 22.218C97.0493 20.788 96.2903 18.786 96.2023 16.212L96.1693 15.387L96.2023 14.562C96.3123 12.054 97.0823 10.085 98.5123 8.655C99.9643 7.225 101.9 6.51 104.32 6.51C106.916 6.51 108.918 7.302 110.326 8.886C111.756 10.47 112.471 12.582 112.471 15.222V15.915C112.471 16.135 112.394 16.322 112.24 16.476C112.086 16.63 111.888 16.707 111.646 16.707H100.69V16.971C100.734 18.181 101.064 19.204 101.68 20.04C102.318 20.854 103.187 21.261 104.287 21.261C105.585 21.261 106.63 20.755 107.422 19.743C107.62 19.501 107.774 19.347 107.884 19.281C108.016 19.215 108.203 19.182 108.445 19.182H111.283C111.481 19.182 111.646 19.248 111.778 19.38C111.932 19.49 112.009 19.633 112.009 19.809C112.009 20.337 111.69 20.964 111.052 21.69C110.436 22.394 109.545 23.01 108.379 23.538C107.213 24.066 105.86 24.33 104.32 24.33ZM107.983 13.935V13.836C107.983 12.538 107.653 11.493 106.993 10.701C106.355 9.909 105.464 9.513 104.32 9.513C103.176 9.513 102.285 9.909 101.647 10.701C101.009 11.493 100.69 12.538 100.69 13.836V13.935H107.983Z" fill="#FF6838"/>
<path d="M118.581 24C118.361 24 118.174 23.923 118.02 23.769C117.866 23.615 117.789 23.428 117.789 23.208V1.725C117.789 1.483 117.855 1.285 117.987 1.131C118.141 0.976999 118.339 0.899998 118.581 0.899998H132.903C133.145 0.899998 133.343 0.976999 133.497 1.131C133.651 1.285 133.728 1.483 133.728 1.725V4.035C133.728 4.277 133.651 4.475 133.497 4.629C133.343 4.761 133.145 4.827 132.903 4.827H122.31V11.097H132.243C132.485 11.097 132.683 11.174 132.837 11.328C132.991 11.482 133.068 11.68 133.068 11.922V14.232C133.068 14.474 132.991 14.672 132.837 14.826C132.683 14.958 132.485 15.024 132.243 15.024H122.31V23.208C122.31 23.45 122.233 23.648 122.079 23.802C121.925 23.934 121.727 24 121.485 24H118.581ZM145.899 24.33C143.325 24.33 141.334 23.67 139.926 22.35C138.518 21.008 137.759 19.182 137.649 16.872L137.616 15.42L137.649 13.968C137.759 11.68 138.529 9.865 139.959 8.523C141.389 7.181 143.369 6.51 145.899 6.51C148.429 6.51 150.409 7.181 151.839 8.523C153.269 9.865 154.039 11.68 154.149 13.968C154.171 14.232 154.182 14.716 154.182 15.42C154.182 16.124 154.171 16.608 154.149 16.872C154.039 19.182 153.28 21.008 151.872 22.35C150.464 23.67 148.473 24.33 145.899 24.33ZM145.899 21.063C147.065 21.063 147.967 20.7 148.605 19.974C149.243 19.226 149.595 18.137 149.661 16.707C149.683 16.487 149.694 16.058 149.694 15.42C149.694 14.782 149.683 14.353 149.661 14.133C149.595 12.703 149.243 11.625 148.605 10.899C147.967 10.151 147.065 9.777 145.899 9.777C144.733 9.777 143.831 10.151 143.193 10.899C142.555 11.625 142.203 12.703 142.137 14.133L142.104 15.42L142.137 16.707C142.203 18.137 142.555 19.226 143.193 19.974C143.831 20.7 144.733 21.063 145.899 21.063ZM166.848 24.33C164.274 24.33 162.283 23.67 160.875 22.35C159.467 21.008 158.708 19.182 158.598 16.872L158.565 15.42L158.598 13.968C158.708 11.68 159.478 9.865 160.908 8.523C162.338 7.181 164.318 6.51 166.848 6.51C169.378 6.51 171.358 7.181 172.788 8.523C174.218 9.865 174.988 11.68 175.098 13.968C175.12 14.232 175.131 14.716 175.131 15.42C175.131 16.124 175.12 16.608 175.098 16.872C174.988 19.182 174.229 21.008 172.821 22.35C171.413 23.67 169.422 24.33 166.848 24.33ZM166.848 21.063C168.014 21.063 168.916 20.7 169.554 19.974C170.192 19.226 170.544 18.137 170.61 16.707C170.632 16.487 170.643 16.058 170.643 15.42C170.643 14.782 170.632 14.353 170.61 14.133C170.544 12.703 170.192 11.625 169.554 10.899C168.916 10.151 168.014 9.777 166.848 9.777C165.682 9.777 164.78 10.151 164.142 10.899C163.504 11.625 163.152 12.703 163.086 14.133L163.053 15.42L163.086 16.707C163.152 18.137 163.504 19.226 164.142 19.974C164.78 20.7 165.682 21.063 166.848 21.063ZM186.575 24.33C184.353 24.33 182.648 23.615 181.46 22.185C180.272 20.755 179.634 18.852 179.546 16.476L179.513 15.387L179.546 14.331C179.612 12.021 180.239 10.14 181.427 8.688C182.637 7.236 184.353 6.51 186.575 6.51C188.709 6.51 190.403 7.236 191.657 8.688V1.362C191.657 1.12 191.734 0.932999 191.888 0.801C192.042 0.646999 192.229 0.569999 192.449 0.569999H195.254C195.496 0.569999 195.683 0.646999 195.815 0.801C195.969 0.932999 196.046 1.12 196.046 1.362V23.208C196.046 23.428 195.969 23.615 195.815 23.769C195.683 23.923 195.496 24 195.254 24H192.647C192.427 24 192.24 23.923 192.086 23.769C191.932 23.615 191.855 23.428 191.855 23.208V21.987C190.601 23.549 188.841 24.33 186.575 24.33ZM187.796 20.799C189.072 20.799 190.018 20.392 190.634 19.578C191.25 18.764 191.591 17.763 191.657 16.575C191.679 16.311 191.69 15.882 191.69 15.288C191.69 14.716 191.679 14.298 191.657 14.034C191.613 12.934 191.261 11.999 190.601 11.229C189.963 10.437 189.028 10.041 187.796 10.041C185.42 10.041 184.155 11.504 184.001 14.43L183.968 15.42L184.001 16.41C184.155 19.336 185.42 20.799 187.796 20.799Z" fill="#363853"/>
<path d="M4.544 23.439L4.9327 22.5176L4.544 23.439ZM1.343 21.096L2.143 20.496L1.343 21.096ZM0.188 17.961H-0.812V17.9806L-0.811232 18.0002L0.188 17.961ZM0.386 17.466L-0.321107 16.7589L-0.321107 16.7589L0.386 17.466ZM4.412 17.433L3.77182 18.2012L3.83944 18.2576L3.91586 18.3012L4.412 17.433ZM4.841 17.895L5.80037 17.6128L5.76428 17.4902L5.69849 17.3805L4.841 17.895ZM13.124 19.776L13.6624 20.6187L13.6706 20.6135L13.6787 20.608L13.124 19.776ZM13.685 16.08L12.9779 16.7871L12.9874 16.7967L12.9973 16.806L13.685 16.08ZM11.87 15.057L11.5303 15.9976L11.5385 16.0005L11.87 15.057ZM8.306 14.001L8.56115 13.0341L8.54905 13.0309L8.53688 13.028L8.306 14.001ZM2.597 11.559L1.94048 12.3133L1.9479 12.3198L1.95545 12.3261L2.597 11.559ZM1.838 3.771L1.02304 3.19147L1.01872 3.19755L1.01449 3.20369L1.838 3.771ZM4.841 1.428L4.44338 0.510427L4.43774 0.512913L4.841 1.428ZM14.114 1.527L14.5492 0.626649H14.5492L14.114 1.527ZM17.117 3.936L16.2995 4.51195L16.307 4.52258L16.3148 4.53301L17.117 3.936ZM18.239 6.774H19.239V6.75076L19.2379 6.72754L18.239 6.774ZM13.52 6.84L12.5371 7.02429L12.5568 7.12945L12.5984 7.22806L13.52 6.84ZM12.2 5.091L11.6567 5.93057L11.6656 5.93628L11.6745 5.9418L12.2 5.091ZM6.524 5.058L7.07266 5.89405L7.07266 5.89405L6.524 5.058ZM5.996 8.589L5.24859 9.25336L5.24859 9.25336L5.996 8.589ZM7.646 9.645L7.26523 10.5697L7.27461 10.5735L7.646 9.645ZM10.946 10.668L10.693 11.6355L10.7086 11.6395L10.7244 11.6431L10.946 10.668ZM15.566 12.153L15.1327 13.0543L15.1394 13.0574L15.566 12.153ZM18.14 14.232L18.9754 13.6824V13.6824L18.14 14.232ZM17.777 21.129L16.977 20.529L16.975 20.5317L17.777 21.129ZM14.477 23.505L14.118 22.5716L14.1131 22.5735L14.477 23.505ZM9.593 23.33C7.73251 23.33 6.18836 23.0474 4.9327 22.5176L4.1553 24.3604C5.71564 25.0186 7.53749 25.33 9.593 25.33V23.33ZM4.9327 22.5176C3.64555 21.9746 2.73826 21.2897 2.143 20.496L0.543 21.696C1.39974 22.8383 2.62645 23.7154 4.1553 24.3604L4.9327 22.5176ZM2.143 20.496C1.52885 19.6771 1.22265 18.825 1.18723 17.9218L-0.811232 18.0002C-0.758653 19.341 -0.294851 20.5789 0.543 21.696L2.143 20.496ZM1.188 17.961C1.188 17.9747 1.18533 18.0118 1.16598 18.0601C1.14616 18.1097 1.11795 18.1483 1.09311 18.1731L-0.321107 16.7589C-0.652902 17.0907 -0.812 17.5156 -0.812 17.961H1.188ZM1.09311 18.1731C1.06827 18.1979 1.02969 18.2262 0.980141 18.246C0.931764 18.2653 0.894717 18.268 0.881 18.268V16.268C0.435639 16.268 0.0106889 16.4271 -0.321107 16.7589L1.09311 18.1731ZM0.881 18.268H3.818V16.268H0.881V18.268ZM3.818 18.268C3.88382 18.268 3.90566 18.2752 3.89686 18.2728C3.88558 18.2696 3.83396 18.253 3.77182 18.2012L5.05218 16.6648C4.66608 16.343 4.19624 16.268 3.818 16.268V18.268ZM3.91586 18.3012C3.89042 18.2867 3.88701 18.2789 3.90196 18.295C3.91725 18.3114 3.94569 18.3465 3.98351 18.4095L5.69849 17.3805C5.5152 17.075 5.26271 16.7674 4.90814 16.5648L3.91586 18.3012ZM3.88163 18.1772C4.18307 19.202 4.86899 20.0107 5.82061 20.6187L6.89739 18.9333C6.26501 18.5293 5.93893 18.084 5.80037 17.6128L3.88163 18.1772ZM5.82061 20.6187C6.83049 21.2639 8.11968 21.535 9.593 21.535V19.535C8.33832 19.535 7.47151 19.3001 6.89739 18.9333L5.82061 20.6187ZM9.593 21.535C11.2326 21.535 12.6353 21.2749 13.6624 20.6187L12.5856 18.9333C12.0287 19.2891 11.0774 19.535 9.593 19.535V21.535ZM13.6787 20.608C14.7388 19.9013 15.312 18.8683 15.312 17.598H13.312C13.312 18.1757 13.0932 18.5947 12.5693 18.9439L13.6787 20.608ZM15.312 17.598C15.312 16.7288 15.0051 15.9531 14.3727 15.354L12.9973 16.806C13.2009 16.9989 13.312 17.2352 13.312 17.598H15.312ZM14.3921 15.3729C13.8484 14.8292 13.0878 14.4249 12.2015 14.1135L11.5385 16.0005C12.2802 16.2611 12.7296 16.5388 12.9779 16.7871L14.3921 15.3729ZM12.2096 14.1164C11.3749 13.815 10.1524 13.454 8.56115 13.0341L8.05085 14.9679C9.6276 15.384 10.7811 15.727 11.5304 15.9976L12.2096 14.1164ZM8.53688 13.028C6.00087 12.4263 4.27406 11.658 3.23855 10.7919L1.95545 12.3261C3.33994 13.484 5.41913 14.3437 8.07512 14.974L8.53688 13.028ZM3.25352 10.8047C2.32761 9.9988 1.815 8.83646 1.815 7.17H-0.185C-0.185 9.28754 0.490395 11.0512 1.94048 12.3133L3.25352 10.8047ZM1.815 7.17C1.815 6.08348 2.10168 5.15095 2.66151 4.3383L1.01449 3.20369C0.210316 4.37105 -0.185 5.70452 -0.185 7.17H1.815ZM2.65296 4.35052C3.23607 3.53052 4.08323 2.85472 5.24426 2.34309L4.43774 0.512913C3.00277 1.14527 1.84793 2.03148 1.02304 3.19147L2.65296 4.35052ZM5.23861 2.34556C6.40984 1.83802 7.79892 1.57 9.428 1.57V-0.430001C7.58108 -0.430001 5.91216 -0.126021 4.44339 0.510444L5.23861 2.34556ZM9.428 1.57C11.1153 1.57 12.5222 1.86829 13.6788 2.42735L14.5492 0.626649C13.0658 -0.0902891 11.3487 -0.430001 9.428 -0.430001V1.57ZM13.6788 2.42735C14.8819 3.00882 15.736 3.71216 16.2995 4.51195L17.9345 3.36004C17.134 2.22384 15.9861 1.32117 14.5492 0.626649L13.6788 2.42735ZM16.3148 4.53301C16.9291 5.35853 17.2074 6.1174 17.2401 6.82046L19.2379 6.72754C19.1826 5.5386 18.7129 4.40547 17.9192 3.33899L16.3148 4.53301ZM17.239 6.774C17.239 6.76028 17.2417 6.72324 17.261 6.67486C17.2808 6.62531 17.3091 6.58673 17.3339 6.56189L18.7481 7.97611C19.0799 7.64431 19.239 7.21936 19.239 6.774H17.239ZM17.3339 6.56189C17.3587 6.53705 17.3973 6.50884 17.4469 6.48902C17.4952 6.46967 17.5323 6.467 17.546 6.467V8.467C17.9914 8.467 18.4163 8.3079 18.7481 7.97611L17.3339 6.56189ZM17.546 6.467H14.477V8.467H17.546V6.467ZM14.477 6.467C14.4366 6.467 14.4181 6.46242 14.4158 6.4618C14.4147 6.46151 14.417 6.46204 14.4217 6.46414C14.4266 6.46627 14.4326 6.46944 14.4393 6.47379C14.4459 6.47814 14.4517 6.48273 14.4563 6.487C14.4609 6.49123 14.4633 6.49413 14.4637 6.49467C14.4646 6.49578 14.4553 6.48446 14.4416 6.45194L12.5984 7.22806C12.7487 7.58501 12.988 7.91395 13.3432 8.14671C13.6972 8.37862 14.0929 8.467 14.477 8.467V6.467ZM14.5029 6.65571C14.3075 5.61379 13.6542 4.81382 12.7255 4.2402L11.6745 5.9418C12.2418 6.29218 12.4685 6.65821 12.5371 7.02429L14.5029 6.65571ZM12.7433 4.25143C11.7991 3.64053 10.6754 3.365 9.428 3.365V5.365C10.3806 5.365 11.1049 5.57347 11.6567 5.93057L12.7433 4.25143ZM9.428 3.365C8.08643 3.365 6.90147 3.61418 5.97534 4.22195L7.07266 5.89405C7.55453 5.57782 8.30557 5.365 9.428 5.365V3.365ZM5.97534 4.22195C4.97476 4.87858 4.468 5.8723 4.468 7.071H6.468C6.468 6.5097 6.66524 6.16141 7.07266 5.89405L5.97534 4.22195ZM4.468 7.071C4.468 7.88961 4.70781 8.64499 5.24859 9.25336L6.74341 7.92464C6.58019 7.74101 6.468 7.48439 6.468 7.071H4.468ZM5.24859 9.25336C5.74059 9.80687 6.44398 10.2315 7.26525 10.5697L8.02675 8.72032C7.35202 8.44249 6.95541 8.16313 6.74341 7.92463L5.24859 9.25336ZM7.27461 10.5735C8.10192 10.9044 9.24862 11.2577 10.693 11.6355L11.199 9.70054C9.78338 9.33029 8.73008 9.0016 8.01739 8.71652L7.27461 10.5735ZM10.7244 11.6431C12.6233 12.0747 14.083 12.5496 15.1327 13.0543L15.9993 11.2517C14.761 10.6564 13.1407 10.1413 11.1676 9.69287L10.7244 11.6431ZM15.1394 13.0574C16.1862 13.5512 16.8809 14.1376 17.3046 14.7816L18.9754 13.6824C18.2991 12.6544 17.2778 11.8548 15.9926 11.2486L15.1394 13.0574ZM17.3046 14.7816C17.7195 15.4123 17.965 16.273 17.965 17.433H19.965C19.965 15.997 19.6605 14.7237 18.9754 13.6824L17.3046 14.7816ZM17.965 17.433C17.965 18.64 17.6303 19.658 16.977 20.529L18.577 21.729C19.5077 20.488 19.965 19.042 19.965 17.433H17.965ZM16.975 20.5317C16.3377 21.3875 15.4052 22.0766 14.118 22.5717L14.836 24.4383C16.4088 23.8334 17.6763 22.9385 18.579 21.7263L16.975 20.5317ZM14.1131 22.5735C12.8438 23.0694 11.3434 23.33 9.593 23.33V25.33C11.5386 25.33 13.2943 25.0406 14.8409 24.4365L14.1131 22.5735ZM23.8689 3.771L24.576 3.06389L24.576 3.06389L23.8689 3.771ZM23.8689 0.272999L23.1617 -0.43411L23.1617 -0.434107L23.8689 0.272999ZM27.9939 0.272999L27.2867 0.980107L27.3103 1.00365L27.3353 1.02557L27.9939 0.272999ZM28.0269 3.771L27.3197 3.06389L27.3197 3.06389L28.0269 3.771ZM24.0009 23.769L24.708 23.0619H24.708L24.0009 23.769ZM24.0009 7.071L24.708 7.77811L24.708 7.7781L24.0009 7.071ZM27.8619 7.071L27.1026 7.72179L27.1527 7.7802L27.2111 7.83026L27.8619 7.071ZM27.8619 23.769L27.1547 23.0619L27.1276 23.0891L27.1026 23.1182L27.8619 23.769ZM24.4299 3.002C24.4389 3.002 24.4678 3.00412 24.5054 3.01957C24.5431 3.0351 24.5669 3.05479 24.576 3.06389L23.1617 4.4781C23.5054 4.82177 23.9477 5.002 24.4299 5.002V3.002ZM24.576 3.06389C24.5851 3.07299 24.6047 3.09678 24.6203 3.1345C24.6357 3.17202 24.6379 3.20093 24.6379 3.21H22.6379C22.6379 3.69219 22.8181 4.13444 23.1617 4.47811L24.576 3.06389ZM24.6379 3.21V0.833999H22.6379V3.21H24.6379ZM24.6379 0.833999C24.6379 0.843065 24.6357 0.871978 24.6203 0.909499C24.6047 0.947221 24.5851 0.971002 24.576 0.980104L23.1617 -0.434107C22.8181 -0.0904412 22.6379 0.35181 22.6379 0.833999H24.6379ZM24.576 0.980107C24.5669 0.98921 24.5431 1.0089 24.5054 1.02443C24.4678 1.03988 24.4389 1.042 24.4299 1.042V-0.958C23.9477 -0.958 23.5054 -0.777774 23.1617 -0.43411L24.576 0.980107ZM24.4299 1.042H27.4329V-0.958H24.4299V1.042ZM27.4329 1.042C27.4238 1.042 27.3949 1.03988 27.3574 1.02443C27.3196 1.0089 27.2959 0.98921 27.2867 0.980107L28.701 -0.43411C28.3573 -0.777774 27.915 -0.958 27.4329 -0.958V1.042ZM27.3353 1.02557C27.3332 1.02372 27.309 1.0012 27.287 0.954546C27.2644 0.906353 27.2579 0.861518 27.2579 0.833999H29.2579C29.2579 0.305655 29.0299 -0.149255 28.6524 -0.479577L27.3353 1.02557ZM27.2579 0.833999V3.21H29.2579V0.833999H27.2579ZM27.2579 3.21C27.2579 3.20093 27.26 3.17202 27.2754 3.1345C27.291 3.09678 27.3106 3.07299 27.3197 3.06389L28.734 4.47811C29.0776 4.13444 29.2579 3.69219 29.2579 3.21H27.2579ZM27.3197 3.06389C27.3383 3.04537 27.3669 3.02529 27.4004 3.01225C27.4319 3 27.447 3.002 27.4329 3.002V5.002C27.9078 5.002 28.3708 4.84131 28.734 4.4781L27.3197 3.06389ZM27.4329 3.002H24.4299V5.002H27.4329V3.002ZM24.5619 23C24.5709 23 24.5998 23.0021 24.6374 23.0176C24.6751 23.0331 24.6989 23.0528 24.708 23.0619L23.2937 24.4761C23.6374 24.8198 24.0797 25 24.5619 25V23ZM24.708 23.0619C24.7171 23.071 24.7367 23.0948 24.7523 23.1325C24.7677 23.17 24.7699 23.1989 24.7699 23.208H22.7699C22.7699 23.6902 22.9501 24.1324 23.2937 24.4761L24.708 23.0619ZM24.7699 23.208V7.632H22.7699V23.208H24.7699ZM24.7699 7.632C24.7699 7.64106 24.7677 7.66998 24.7523 7.7075C24.7367 7.74522 24.7171 7.769 24.708 7.77811L23.2937 6.36389C22.9501 6.70756 22.7699 7.14981 22.7699 7.632H24.7699ZM24.708 7.7781C24.6989 7.78721 24.6751 7.80689 24.6374 7.82243C24.5998 7.83788 24.5709 7.84 24.5619 7.84V5.84C24.0797 5.84 23.6374 6.02023 23.2937 6.36389L24.708 7.7781ZM24.5619 7.84H27.3009V5.84H24.5619V7.84ZM27.3009 7.84C27.3164 7.84 27.2904 7.84241 27.2419 7.82243C27.1889 7.80061 27.1391 7.76432 27.1026 7.72179L28.6211 6.42021C28.2622 6.00146 27.7728 5.84 27.3009 5.84V7.84ZM27.2111 7.83026C27.1685 7.7938 27.1322 7.74397 27.1104 7.691C27.0904 7.64246 27.0929 7.61647 27.0929 7.632H29.0929C29.0929 7.16008 28.9314 6.67067 28.5126 6.31174L27.2111 7.83026ZM27.0929 7.632V23.208H29.0929V7.632H27.0929ZM27.0929 23.208C27.0929 23.1989 27.095 23.17 27.1104 23.1325C27.126 23.0948 27.1456 23.071 27.1547 23.0619L28.569 24.4761C28.9126 24.1324 29.0929 23.6902 29.0929 23.208H27.0929ZM27.1026 23.1182C27.1391 23.0757 27.1889 23.0394 27.2419 23.0176C27.2904 22.9976 27.3164 23 27.3009 23V25C27.7728 25 28.2622 24.8385 28.6211 24.4198L27.1026 23.1182ZM27.3009 23H24.5619V25H27.3009V23ZM34.121 23.769L34.8281 23.0619L34.121 23.769ZM34.121 7.071L34.8281 7.77811L34.8281 7.7781L34.121 7.071ZM37.817 7.071L37.1099 7.7781L37.1099 7.77811L37.817 7.071ZM38.048 8.754H37.048V11.7079L38.8424 9.36145L38.048 8.754ZM47.948 9.447L47.0516 9.89018L47.8633 11.5319L48.8055 9.96149L47.948 9.447ZM50.192 7.335L50.6709 8.2129L50.6785 8.20874L50.686 8.20446L50.192 7.335ZM57.749 8.358L58.4818 7.67755V7.67755L57.749 8.358ZM59.234 23.769L58.5269 23.0619L58.4998 23.0891L58.4748 23.1182L59.234 23.769ZM55.406 23.769L56.1131 23.0619L56.1131 23.0619L55.406 23.769ZM54.284 10.998L53.5395 11.6655L53.5516 11.6791L53.5642 11.6921L54.284 10.998ZM49.763 10.998L49.0436 10.3034L49.0373 10.3099L49.0311 10.3166L49.763 10.998ZM48.641 23.769L47.9339 23.0619V23.0619L48.641 23.769ZM43.658 10.998L42.9261 11.6794L42.9383 11.6925L42.9509 11.7051L43.658 10.998ZM39.137 10.998L38.4176 10.3034L38.4113 10.3099L38.4051 10.3166L39.137 10.998ZM38.015 23.769L37.3079 23.0619L38.015 23.769ZM34.682 23C34.6911 23 34.72 23.0021 34.7575 23.0176C34.7952 23.0331 34.819 23.0528 34.8281 23.0619L33.4139 24.4761C33.7576 24.8198 34.1998 25 34.682 25V23ZM34.8281 23.0619C34.8372 23.071 34.8569 23.0948 34.8725 23.1325C34.8879 23.17 34.89 23.1989 34.89 23.208H32.89C32.89 23.6902 33.0703 24.1324 33.4139 24.4761L34.8281 23.0619ZM34.89 23.208V7.632H32.89V23.208H34.89ZM34.89 7.632C34.89 7.64106 34.8879 7.66998 34.8725 7.7075C34.8569 7.74522 34.8372 7.769 34.8281 7.77811L33.4139 6.36389C33.0703 6.70756 32.89 7.14981 32.89 7.632H34.89ZM34.8281 7.7781C34.819 7.78721 34.7952 7.80689 34.7575 7.82243C34.72 7.83788 34.6911 7.84 34.682 7.84V5.84C34.1998 5.84 33.7576 6.02023 33.4139 6.36389L34.8281 7.7781ZM34.682 7.84H37.256V5.84H34.682V7.84ZM37.256 7.84C37.247 7.84 37.218 7.83788 37.1805 7.82243C37.1428 7.80689 37.119 7.78721 37.1099 7.7781L38.5241 6.36389C38.1805 6.02023 37.7382 5.84 37.256 5.84V7.84ZM37.1099 7.77811C37.1008 7.769 37.0811 7.74522 37.0656 7.7075C37.0501 7.66998 37.048 7.64106 37.048 7.632H39.048C39.048 7.14981 38.8678 6.70756 38.5241 6.36389L37.1099 7.77811ZM37.048 7.632V8.754H39.048V7.632H37.048ZM38.8424 9.36145C39.7791 8.13654 41.0674 7.51 42.833 7.51V5.51C40.5066 5.51 38.605 6.37946 37.2537 8.14655L38.8424 9.36145ZM42.833 7.51C43.9212 7.51 44.7769 7.72767 45.4453 8.11146C46.1071 8.49144 46.6453 9.06841 47.0516 9.89018L48.8445 9.00382C48.2827 7.86759 47.4845 6.97606 46.4412 6.37704C45.4046 5.78183 44.1869 5.51 42.833 5.51V7.51ZM48.8055 9.96149C49.2351 9.24553 49.8471 8.6622 50.6709 8.2129L49.7132 6.4571C48.6009 7.0638 47.717 7.88847 47.0905 8.9325L48.8055 9.96149ZM50.686 8.20446C51.5022 7.74071 52.3768 7.51 53.327 7.51V5.51C52.0332 5.51 50.8178 5.82929 49.698 6.46554L50.686 8.20446ZM53.327 7.51C54.8757 7.51 56.0764 8.0263 57.0162 9.03845L58.4818 7.67755C57.1337 6.2257 55.3864 5.51 53.327 5.51V7.51ZM57.0162 9.03845C57.9301 10.0226 58.465 11.534 58.465 13.737H60.465C60.465 11.232 59.8559 9.15738 58.4818 7.67755L57.0162 9.03845ZM58.465 13.737V23.208H60.465V13.737H58.465ZM58.465 23.208C58.465 23.1989 58.4671 23.17 58.4826 23.1325C58.4981 23.0948 58.5178 23.071 58.5269 23.0619L59.9411 24.4761C60.2848 24.1324 60.465 23.6902 60.465 23.208H58.465ZM58.4748 23.1182C58.5112 23.0757 58.5611 23.0394 58.614 23.0176C58.6626 22.9976 58.6886 23 58.673 23V25C59.1449 25 59.6344 24.8385 59.9933 24.4198L58.4748 23.1182ZM58.673 23H55.967V25H58.673V23ZM55.967 23C55.9761 23 56.005 23.0021 56.0425 23.0176C56.0802 23.0331 56.104 23.0528 56.1131 23.0619L54.6989 24.4761C55.0426 24.8198 55.4848 25 55.967 25V23ZM56.1131 23.0619C56.1222 23.071 56.1419 23.0948 56.1575 23.1325C56.1729 23.17 56.175 23.1989 56.175 23.208H54.175C54.175 23.6902 54.3553 24.1324 54.6989 24.4761L56.1131 23.0619ZM56.175 23.208V14.001H54.175V23.208H56.175ZM56.175 14.001C56.175 12.5088 55.8613 11.193 55.0039 10.3039L53.5642 11.6921C53.8948 12.035 54.175 12.7212 54.175 14.001H56.175ZM55.0286 10.3305C54.2412 9.45223 53.1853 9.041 51.974 9.041V11.041C52.6988 11.041 53.1828 11.2678 53.5395 11.6655L55.0286 10.3305ZM51.974 9.041C50.8346 9.041 49.841 9.47761 49.0436 10.3034L50.4824 11.6926C50.9171 11.2424 51.3974 11.041 51.974 11.041V9.041ZM49.0311 10.3166C48.1898 11.2202 47.872 12.5214 47.872 14.001H49.872C49.872 12.7526 50.1482 12.0518 50.4949 11.6794L49.0311 10.3166ZM47.872 14.001V23.208H49.872V14.001H47.872ZM47.872 23.208C47.872 23.1989 47.8741 23.17 47.8896 23.1325C47.9051 23.0948 47.9248 23.071 47.9339 23.0619L49.3481 24.4761C49.6918 24.1324 49.872 23.6902 49.872 23.208H47.872ZM47.9339 23.0619C47.943 23.0528 47.9668 23.0331 48.0045 23.0176C48.042 23.0021 48.071 23 48.08 23V25C48.5622 25 49.0045 24.8198 49.3481 24.4761L47.9339 23.0619ZM48.08 23H45.374V25H48.08V23ZM45.374 23C45.3831 23 45.412 23.0021 45.4495 23.0176C45.4872 23.0331 45.511 23.0528 45.5201 23.0619L44.1059 24.4761C44.4496 24.8198 44.8918 25 45.374 25V23ZM45.5201 23.0619C45.5292 23.071 45.5489 23.0948 45.5645 23.1325C45.5799 23.17 45.582 23.1989 45.582 23.208H43.582C43.582 23.6902 43.7623 24.1324 44.1059 24.4761L45.5201 23.0619ZM45.582 23.208V14.001H43.582V23.208H45.582ZM45.582 14.001C45.582 12.501 45.2537 11.1795 44.3651 10.2909L42.9509 11.7051C43.2943 12.0485 43.582 12.729 43.582 14.001H45.582ZM44.3899 10.3166C43.5944 9.46211 42.5639 9.041 41.381 9.041V11.041C42.0461 11.041 42.5337 11.2579 42.9261 11.6794L44.3899 10.3166ZM41.381 9.041C40.2273 9.041 39.2204 9.47195 38.4176 10.3034L39.8564 11.6926C40.2856 11.2481 40.7747 11.041 41.381 11.041V9.041ZM38.4051 10.3166C37.5638 11.2202 37.246 12.5214 37.246 14.001H39.246C39.246 12.7526 39.5222 12.0518 39.8689 11.6794L38.4051 10.3166ZM37.246 14.001V23.208H39.246V14.001H37.246ZM37.246 23.208C37.246 23.1989 37.2481 23.17 37.2636 23.1325C37.2791 23.0948 37.2988 23.071 37.3079 23.0619L38.7221 24.4761C39.0658 24.1324 39.246 23.6902 39.246 23.208H37.246ZM37.3079 23.0619C37.317 23.0528 37.3408 23.0331 37.3785 23.0176C37.416 23.0021 37.445 23 37.454 23V25C37.9362 25 38.3785 24.8198 38.7221 24.4761L37.3079 23.0619ZM37.454 23H34.682V25H37.454V23ZM65.3504 30.039L66.0575 29.3319L66.0303 29.3047L66.0012 29.2797L65.3504 30.039ZM65.3504 7.071L66.0012 7.83026L66.0303 7.80526L66.0575 7.7781L65.3504 7.071ZM69.0794 7.071L68.3201 7.72179L68.3702 7.7802L68.4286 7.83026L69.0794 7.071ZM69.3104 8.952H68.3104V11.9306L70.1078 9.55544L69.3104 8.952ZM79.7054 8.622L78.9411 9.26689L78.9461 9.27279L79.7054 8.622ZM81.6194 14.265L80.6201 14.302L80.6209 14.3251L80.6228 14.348L81.6194 14.265ZM81.6194 16.608L80.6228 16.525L80.6209 16.5474L80.6201 16.5699L81.6194 16.608ZM79.7054 22.218L80.4697 22.8629L80.4746 22.857L79.7054 22.218ZM69.5084 21.987L70.3097 21.3888L68.5084 18.9757V21.987H69.5084ZM69.2774 30.039L68.6266 29.2797L68.5682 29.3298L68.5181 29.3882L69.2774 30.039ZM77.1644 16.41L76.1693 16.3105L76.167 16.3339L76.1657 16.3574L77.1644 16.41ZM77.1644 14.43L76.1657 14.4826L76.167 14.5061L76.1693 14.5295L77.1644 14.43ZM69.5084 14.265L68.5099 14.2095L68.5091 14.2241L68.5087 14.2387L69.5084 14.265ZM69.4754 15.519L68.4757 15.4927L68.475 15.5187L68.4757 15.5446L69.4754 15.519ZM69.5084 16.806L68.5087 16.8316L68.5089 16.8388L68.5092 16.846L69.5084 16.806ZM70.5314 19.644L69.7526 20.2713L69.7622 20.2832L69.7721 20.2948L70.5314 19.644ZM65.9114 29.27C65.9204 29.27 65.9493 29.2721 65.9869 29.2876C66.0246 29.3031 66.0484 29.3228 66.0575 29.3319L64.6433 30.7461C64.9869 31.0898 65.4292 31.27 65.9114 31.27V29.27ZM66.0012 29.2797C66.0437 29.3162 66.08 29.366 66.1018 29.419C66.1218 29.4675 66.1194 29.4935 66.1194 29.478H64.1194C64.1194 29.9499 64.2808 30.4393 64.6996 30.7983L66.0012 29.2797ZM66.1194 29.478V7.632H64.1194V29.478H66.1194ZM66.1194 7.632C66.1194 7.61647 66.1218 7.64246 66.1018 7.691C66.08 7.74397 66.0437 7.7938 66.0012 7.83026L64.6996 6.31174C64.2808 6.67067 64.1194 7.16008 64.1194 7.632H66.1194ZM66.0575 7.7781C66.0484 7.78721 66.0246 7.80689 65.9869 7.82243C65.9493 7.83788 65.9204 7.84 65.9114 7.84V5.84C65.4292 5.84 64.9869 6.02023 64.6433 6.36389L66.0575 7.7781ZM65.9114 7.84H68.5184V5.84H65.9114V7.84ZM68.5184 7.84C68.5339 7.84 68.5079 7.84241 68.4594 7.82243C68.4064 7.80061 68.3566 7.76432 68.3201 7.72179L69.8386 6.42021C69.4797 6.00146 68.9903 5.84 68.5184 5.84V7.84ZM68.4286 7.83026C68.386 7.7938 68.3498 7.74397 68.3279 7.691C68.308 7.64246 68.3104 7.61647 68.3104 7.632H70.3104C70.3104 7.16008 70.1489 6.67067 69.7302 6.31174L68.4286 7.83026ZM68.3104 7.632V8.952H70.3104V7.632H68.3104ZM70.1078 9.55544C71.1261 8.20986 72.5723 7.51 74.5904 7.51V5.51C72.0324 5.51 69.9587 6.43814 68.513 8.34856L70.1078 9.55544ZM74.5904 7.51C76.5845 7.51 77.9823 8.13053 78.9411 9.26687L80.4697 7.97713C79.0524 6.29747 77.0403 5.51 74.5904 5.51V7.51ZM78.9461 9.27279C79.9477 10.4413 80.5379 12.083 80.6201 14.302L82.6187 14.228C82.5249 11.695 81.839 9.57468 80.4646 7.97121L78.9461 9.27279ZM80.6228 14.348C80.6413 14.5698 80.6524 14.9216 80.6524 15.42H82.6524C82.6524 14.9064 82.6414 14.4882 82.6159 14.182L80.6228 14.348ZM80.6524 15.42C80.6524 15.9418 80.6412 16.3039 80.6228 16.525L82.6159 16.691C82.6415 16.3841 82.6524 15.9542 82.6524 15.42H80.6524ZM80.6201 16.5699C80.5384 18.7144 79.952 20.3562 78.9362 21.579L80.4746 22.857C81.8347 21.2198 82.5243 19.1216 82.6186 16.6461L80.6201 16.5699ZM78.9411 21.5731C77.9823 22.7095 76.5845 23.33 74.5904 23.33V25.33C77.0403 25.33 79.0524 24.5425 80.4697 22.8629L78.9411 21.5731ZM74.5904 23.33C72.6334 23.33 71.2587 22.66 70.3097 21.3888L68.707 22.5852C70.0901 24.438 72.1033 25.33 74.5904 25.33V23.33ZM68.5084 21.987V29.478H70.5084V21.987H68.5084ZM68.5084 29.478C68.5084 29.4935 68.506 29.4675 68.5259 29.419C68.5478 29.366 68.584 29.3162 68.6266 29.2797L69.9282 30.7983C70.3469 30.4393 70.5084 29.9499 70.5084 29.478H68.5084ZM68.5181 29.3882C68.5546 29.3457 68.6044 29.3094 68.6574 29.2876C68.7059 29.2676 68.7319 29.27 68.7164 29.27V31.27C69.1883 31.27 69.6777 31.1085 70.0366 30.6898L68.5181 29.3882ZM68.7164 29.27H65.9114V31.27H68.7164V29.27ZM73.3694 21.799C74.7756 21.799 75.9915 21.3563 76.8566 20.3558C77.6923 19.3893 78.08 18.0388 78.163 16.4626L76.1657 16.3574C76.0947 17.7072 75.7729 18.5512 75.3437 19.0477C74.9437 19.5102 74.3391 19.799 73.3694 19.799V21.799ZM78.1594 16.5095C78.1865 16.2381 78.1974 15.8675 78.1974 15.42H76.1974C76.1974 15.8525 76.1862 16.1419 76.1693 16.3105L78.1594 16.5095ZM78.1974 15.42C78.1974 14.9725 78.1865 14.6019 78.1594 14.3305L76.1693 14.5295C76.1862 14.6981 76.1974 14.9875 76.1974 15.42H78.1974ZM78.163 14.3774C78.08 12.8012 77.6923 11.4507 76.8566 10.4842C75.9915 9.48372 74.7756 9.041 73.3694 9.041V11.041C74.3391 11.041 74.9437 11.3298 75.3437 11.7923C75.7729 12.2888 76.0947 13.1328 76.1657 14.4826L78.163 14.3774ZM73.3694 9.041C71.8668 9.041 70.5858 9.5329 69.734 10.6586L71.3288 11.8654C71.7089 11.3631 72.3199 11.041 73.3694 11.041V9.041ZM69.734 10.6586C68.9791 11.6561 68.5851 12.8566 68.5099 14.2095L70.5068 14.3205C70.5637 13.2974 70.8517 12.4959 71.3288 11.8654L69.734 10.6586ZM68.5087 14.2387L68.4757 15.4927L70.475 15.5453L70.508 14.2913L68.5087 14.2387ZM68.4757 15.5446L68.5087 16.8316L70.508 16.7804L70.475 15.4934L68.4757 15.5446ZM68.5092 16.846C68.561 18.1416 68.9687 19.2982 69.7526 20.2713L71.3101 19.0167C70.818 18.4058 70.5437 17.6704 70.5076 16.766L68.5092 16.846ZM69.7721 20.2948C70.6626 21.3337 71.914 21.799 73.3694 21.799V19.799C72.3607 19.799 71.7201 19.4943 71.2906 18.9932L69.7721 20.2948ZM87.0399 0.801L87.6907 1.56026L87.7198 1.53526L87.747 1.50811L87.0399 0.801ZM90.9009 0.801L90.1416 1.45179L90.1917 1.5102L90.2501 1.56026L90.9009 0.801ZM90.9009 23.769L90.1938 23.0619L90.1666 23.089L90.1416 23.1182L90.9009 23.769ZM87.6009 23C87.6099 23 87.6389 23.0021 87.6764 23.0176C87.7141 23.0331 87.7379 23.0528 87.747 23.0619L86.3328 24.4761C86.6764 24.8198 87.1187 25 87.6009 25V23ZM87.747 23.0619C87.7561 23.071 87.7758 23.0948 87.7913 23.1325C87.8068 23.17 87.8089 23.1989 87.8089 23.208H85.8089C85.8089 23.6902 85.9891 24.1324 86.3328 24.4761L87.747 23.0619ZM87.8089 23.208V1.362H85.8089V23.208H87.8089ZM87.8089 1.362C87.8089 1.34647 87.8113 1.37246 87.7913 1.421C87.7695 1.47397 87.7332 1.5238 87.6907 1.56026L86.3891 0.0417423C85.9703 0.400673 85.8089 0.890076 85.8089 1.362H87.8089ZM87.747 1.50811C87.7379 1.51721 87.7141 1.53689 87.6764 1.55243C87.6389 1.56788 87.6099 1.57 87.6009 1.57V-0.430001C87.1187 -0.430001 86.6764 -0.249773 86.3328 0.0938945L87.747 1.50811ZM87.6009 1.57H90.3399V-0.430001H87.6009V1.57ZM90.3399 1.57C90.3554 1.57 90.3294 1.57241 90.2809 1.55243C90.2279 1.53061 90.1781 1.49432 90.1416 1.45179L91.6601 0.150209C91.3012 -0.268544 90.8118 -0.430001 90.3399 -0.430001V1.57ZM90.2501 1.56026C90.2076 1.5238 90.1713 1.47397 90.1495 1.421C90.1295 1.37246 90.1319 1.34647 90.1319 1.362H92.1319C92.1319 0.890076 91.9704 0.400673 91.5517 0.0417423L90.2501 1.56026ZM90.1319 1.362V23.208H92.1319V1.362H90.1319ZM90.1319 23.208C90.1319 23.1989 90.134 23.17 90.1495 23.1325C90.165 23.0948 90.1847 23.071 90.1938 23.0619L91.608 24.4761C91.9517 24.1324 92.1319 23.6902 92.1319 23.208H90.1319ZM90.1416 23.1182C90.1781 23.0757 90.2279 23.0394 90.2809 23.0176C90.3294 22.9976 90.3554 23 90.3399 23V25C90.8118 25 91.3012 24.8385 91.6601 24.4198L90.1416 23.1182ZM90.3399 23H87.6009V25H90.3399V23ZM98.4793 22.218L97.7722 22.9251L97.7776 22.9305L97.7831 22.9359L98.4793 22.218ZM96.2023 16.212L97.2017 16.1778L97.2015 16.172L96.2023 16.212ZM96.1693 15.387L95.1701 15.347L95.1685 15.387L95.1701 15.427L96.1693 15.387ZM96.2023 14.562L95.2032 14.5182L95.2031 14.522L96.2023 14.562ZM98.5123 8.655L97.8106 7.94249L97.8052 7.94789L98.5123 8.655ZM110.326 8.886L109.579 9.55038L109.584 9.5561L110.326 8.886ZM112.24 16.476L112.947 17.1831L112.947 17.1831L112.24 16.476ZM100.69 16.707V15.707H99.6903V16.707H100.69ZM100.69 16.971H99.6903V16.9892L99.6909 17.0073L100.69 16.971ZM101.68 20.04L100.875 20.6332L100.884 20.6452L100.893 20.6569L101.68 20.04ZM107.422 19.743L106.648 19.1098L106.641 19.1182L106.635 19.1267L107.422 19.743ZM107.884 19.281L107.437 18.3866L107.403 18.4037L107.37 18.4235L107.884 19.281ZM111.778 19.38L111.071 20.0871L111.13 20.1456L111.197 20.1937L111.778 19.38ZM111.052 21.69L110.301 21.0299L110.3 21.0315L111.052 21.69ZM108.379 23.538L108.792 24.449L108.379 23.538ZM107.983 13.935V14.935H108.983V13.935H107.983ZM106.993 10.701L106.215 11.3283L106.22 11.3348L106.225 11.3412L106.993 10.701ZM101.647 10.701L100.869 10.0737L101.647 10.701ZM100.69 13.935H99.6903V14.935H100.69V13.935ZM104.32 23.33C102.081 23.33 100.403 22.6909 99.1754 21.5001L97.7831 22.9359C99.4592 24.5611 101.676 25.33 104.32 25.33V23.33ZM99.1864 21.5109C97.9807 20.3052 97.2835 18.5705 97.2017 16.1778L95.2029 16.2462C95.2971 19.0014 96.1179 21.2708 97.7722 22.9251L99.1864 21.5109ZM97.2015 16.172L97.1685 15.347L95.1701 15.427L95.2031 16.252L97.2015 16.172ZM97.1685 15.427L97.2015 14.602L95.2031 14.522L95.1701 15.347L97.1685 15.427ZM97.2013 14.6058C97.3031 12.2846 98.0062 10.5753 99.2194 9.36211L97.8052 7.94789C96.1583 9.59474 95.3214 11.8234 95.2032 14.5182L97.2013 14.6058ZM99.214 9.36748C100.444 8.15569 102.11 7.51 104.32 7.51V5.51C101.69 5.51 99.4842 6.29431 97.8106 7.94252L99.214 9.36748ZM104.32 7.51C106.7 7.51 108.402 8.22689 109.579 9.55036L111.074 8.22163C109.434 6.37711 107.132 5.51 104.32 5.51V7.51ZM109.584 9.5561C110.811 10.9154 111.471 12.7683 111.471 15.222H113.471C113.471 12.3957 112.701 10.0246 111.069 8.2159L109.584 9.5561ZM111.471 15.222V15.915H113.471V15.222H111.471ZM111.471 15.915C111.471 15.9059 111.473 15.877 111.489 15.8395C111.504 15.8018 111.524 15.778 111.533 15.7689L112.947 17.1831C113.291 16.8394 113.471 16.3972 113.471 15.915H111.471ZM111.533 15.7689C111.552 15.7504 111.58 15.7303 111.614 15.7172C111.645 15.705 111.66 15.707 111.646 15.707V17.707C112.121 17.707 112.584 17.5463 112.947 17.1831L111.533 15.7689ZM111.646 15.707H100.69V17.707H111.646V15.707ZM99.6903 16.707V16.971H101.69V16.707H99.6903ZM99.6909 17.0073C99.741 18.384 100.121 19.6098 100.875 20.6332L102.485 19.4468C102.007 18.7982 101.728 17.978 101.69 16.9347L99.6909 17.0073ZM100.893 20.6569C101.734 21.73 102.903 22.261 104.287 22.261V20.261C103.472 20.261 102.902 19.978 102.467 19.4231L100.893 20.6569ZM104.287 22.261C105.889 22.261 107.226 21.6163 108.21 20.3593L106.635 19.1267C106.035 19.8937 105.281 20.261 104.287 20.261V22.261ZM108.196 20.3762C108.282 20.2709 108.348 20.1989 108.393 20.1531C108.416 20.1306 108.429 20.1191 108.434 20.1152C108.44 20.1104 108.427 20.1214 108.399 20.1385L107.37 18.4235C107.094 18.5888 106.844 18.8705 106.648 19.1098L108.196 20.3762ZM108.331 20.1754C108.291 20.1959 108.273 20.1958 108.297 20.1915C108.32 20.1875 108.368 20.182 108.445 20.182V18.182C108.136 18.182 107.769 18.2204 107.437 18.3866L108.331 20.1754ZM108.445 20.182H111.283V18.182H108.445V20.182ZM111.283 20.182C111.27 20.182 111.233 20.1793 111.184 20.16C111.135 20.1402 111.096 20.1119 111.071 20.0871L112.485 18.6729C112.154 18.3411 111.729 18.182 111.283 18.182V20.182ZM111.197 20.1937C111.17 20.1745 111.116 20.1275 111.071 20.0438C111.025 19.9576 111.009 19.8723 111.009 19.809H113.009C113.009 19.2826 112.753 18.8474 112.36 18.5663L111.197 20.1937ZM111.009 19.809C111.009 19.9603 110.897 20.3515 110.301 21.0299L111.803 22.3501C112.483 21.5765 113.009 20.7137 113.009 19.809H111.009ZM110.3 21.0315C109.806 21.5961 109.048 22.1375 107.967 22.627L108.792 24.449C110.043 23.8825 111.067 23.1919 111.805 22.3485L110.3 21.0315ZM107.967 22.627C106.954 23.0857 105.746 23.33 104.32 23.33V25.33C105.974 25.33 107.473 25.0463 108.792 24.449L107.967 22.627ZM108.983 13.935V13.836H106.983V13.935H108.983ZM108.983 13.836C108.983 12.3663 108.607 11.0751 107.761 10.0608L106.225 11.3412C106.7 11.9109 106.983 12.7097 106.983 13.836H108.983ZM107.772 10.0737C106.919 9.01461 105.724 8.513 104.32 8.513V10.513C105.204 10.513 105.792 10.8034 106.215 11.3283L107.772 10.0737ZM104.32 8.513C102.916 8.513 101.722 9.01461 100.869 10.0737L102.426 11.3283C102.849 10.8034 103.436 10.513 104.32 10.513V8.513ZM100.869 10.0737C100.052 11.0876 99.6903 12.3739 99.6903 13.836H101.69C101.69 12.7021 101.967 11.8984 102.426 11.3283L100.869 10.0737ZM99.6903 13.836V13.935H101.69V13.836H99.6903ZM100.69 14.935H107.983V12.935H100.69V14.935ZM118.02 23.769L117.313 24.4761L118.02 23.769ZM117.987 1.131L117.28 0.423894L117.253 0.451049L117.228 0.480206L117.987 1.131ZM133.497 1.131L132.79 1.8381V1.83811L133.497 1.131ZM133.497 4.629L134.148 5.38826L134.177 5.36326L134.204 5.33611L133.497 4.629ZM122.31 4.827V3.827H121.31V4.827H122.31ZM122.31 11.097H121.31V12.097H122.31V11.097ZM132.837 11.328L133.544 10.6209V10.6209L132.837 11.328ZM132.837 14.826L133.488 15.5853L133.517 15.5603L133.544 15.5331L132.837 14.826ZM122.31 15.024V14.024H121.31V15.024H122.31ZM122.079 23.802L122.73 24.5613L122.759 24.5363L122.786 24.5091L122.079 23.802ZM118.581 23C118.59 23 118.619 23.0021 118.657 23.0176C118.694 23.0331 118.718 23.0528 118.727 23.0619L117.313 24.4761C117.657 24.8198 118.099 25 118.581 25V23ZM118.727 23.0619C118.736 23.071 118.756 23.0948 118.772 23.1325C118.787 23.17 118.789 23.1989 118.789 23.208H116.789C116.789 23.6902 116.969 24.1324 117.313 24.4761L118.727 23.0619ZM118.789 23.208V1.725H116.789V23.208H118.789ZM118.789 1.725C118.789 1.69469 118.793 1.69347 118.787 1.71123C118.784 1.72004 118.78 1.73176 118.772 1.74501C118.765 1.75832 118.756 1.77081 118.746 1.78179L117.228 0.480206C116.912 0.849044 116.789 1.29261 116.789 1.725H118.789ZM118.694 1.8381C118.676 1.85662 118.647 1.87671 118.614 1.88975C118.582 1.90199 118.567 1.9 118.581 1.9V-0.100001C118.106 -0.100001 117.643 0.0606894 117.28 0.423894L118.694 1.8381ZM118.581 1.9H132.903V-0.100001H118.581V1.9ZM132.903 1.9C132.917 1.9 132.902 1.90199 132.871 1.88975C132.837 1.87671 132.809 1.85662 132.79 1.8381L134.204 0.423896C133.841 0.060689 133.378 -0.100001 132.903 -0.100001V1.9ZM132.79 1.83811C132.772 1.81959 132.751 1.79098 132.738 1.75745C132.726 1.72597 132.728 1.7109 132.728 1.725H134.728C134.728 1.25008 134.567 0.787093 134.204 0.42389L132.79 1.83811ZM132.728 1.725V4.035H134.728V1.725H132.728ZM132.728 4.035C132.728 4.0491 132.726 4.03403 132.738 4.00255C132.751 3.96902 132.772 3.94041 132.79 3.92189L134.204 5.33611C134.567 4.9729 134.728 4.50992 134.728 4.035H132.728ZM132.846 3.86974C132.857 3.86033 132.87 3.85154 132.883 3.84405C132.896 3.83659 132.908 3.83175 132.917 3.82882C132.935 3.8229 132.933 3.827 132.903 3.827V5.827C133.336 5.827 133.779 5.7044 134.148 5.38826L132.846 3.86974ZM132.903 3.827H122.31V5.827H132.903V3.827ZM121.31 4.827V11.097H123.31V4.827H121.31ZM122.31 12.097H132.243V10.097H122.31V12.097ZM132.243 12.097C132.257 12.097 132.242 12.099 132.211 12.0868C132.177 12.0737 132.149 12.0536 132.13 12.0351L133.544 10.6209C133.181 10.2577 132.718 10.097 132.243 10.097V12.097ZM132.13 12.0351C132.112 12.0166 132.091 11.988 132.078 11.9544C132.066 11.923 132.068 11.9079 132.068 11.922H134.068C134.068 11.4471 133.907 10.9841 133.544 10.6209L132.13 12.0351ZM132.068 11.922V14.232H134.068V11.922H132.068ZM132.068 14.232C132.068 14.2461 132.066 14.231 132.078 14.1996C132.091 14.166 132.112 14.1374 132.13 14.1189L133.544 15.5331C133.907 15.1699 134.068 14.7069 134.068 14.232H132.068ZM132.186 14.0667C132.197 14.0573 132.21 14.0485 132.223 14.041C132.236 14.0336 132.248 14.0288 132.257 14.0258C132.275 14.0199 132.273 14.024 132.243 14.024V16.024C132.676 16.024 133.119 15.9014 133.488 15.5853L132.186 14.0667ZM132.243 14.024H122.31V16.024H132.243V14.024ZM121.31 15.024V23.208H123.31V15.024H121.31ZM121.31 23.208C121.31 23.2221 121.308 23.207 121.32 23.1756C121.333 23.142 121.354 23.1134 121.372 23.0949L122.786 24.5091C123.149 24.1459 123.31 23.6829 123.31 23.208H121.31ZM121.428 23.0427C121.439 23.0333 121.452 23.0245 121.465 23.017C121.478 23.0096 121.49 23.0048 121.499 23.0018C121.517 22.9959 121.515 23 121.485 23V25C121.918 25 122.361 24.8774 122.73 24.5613L121.428 23.0427ZM121.485 23H118.581V25H121.485V23ZM139.926 22.35L139.236 23.0739L139.242 23.0795L139.926 22.35ZM137.649 16.872L136.65 16.8947L136.65 16.9071L136.65 16.9196L137.649 16.872ZM137.616 15.42L136.617 15.3973L136.616 15.42L136.617 15.4427L137.616 15.42ZM137.649 13.968L136.65 13.92L136.65 13.9326L136.65 13.9453L137.649 13.968ZM139.959 8.523L140.644 9.25219L139.959 8.523ZM151.839 8.523L151.155 9.25219V9.25219L151.839 8.523ZM154.149 13.968L153.15 14.016L153.151 14.0336L153.153 14.051L154.149 13.968ZM154.149 16.872L153.153 16.7889L153.151 16.8067L153.15 16.8244L154.149 16.872ZM151.872 22.35L152.556 23.0796L152.562 23.0739L151.872 22.35ZM148.605 19.974L149.356 20.6341L149.361 20.6286L149.366 20.6229L148.605 19.974ZM149.661 16.707L148.666 16.6075L148.664 16.6341L148.662 16.6609L149.661 16.707ZM149.661 14.133L148.662 14.1791L148.664 14.2059L148.666 14.2325L149.661 14.133ZM148.605 10.899L147.844 11.5479L147.849 11.5536L147.854 11.5591L148.605 10.899ZM143.193 10.899L143.944 11.5591L143.949 11.5536L143.954 11.5479L143.193 10.899ZM142.137 14.133L141.138 14.0869L141.138 14.0971L141.138 14.1074L142.137 14.133ZM142.104 15.42L141.105 15.3944L141.104 15.42L141.105 15.4456L142.104 15.42ZM142.137 16.707L141.138 16.7326L141.138 16.7429L141.138 16.7531L142.137 16.707ZM143.193 19.974L142.432 20.6229L142.437 20.6286L142.442 20.6341L143.193 19.974ZM145.899 23.33C143.493 23.33 141.778 22.7153 140.61 21.6205L139.242 23.0795C140.89 24.6247 143.158 25.33 145.899 25.33V23.33ZM140.616 21.6261C139.429 20.4942 138.748 18.9294 138.648 16.8244L136.65 16.9196C136.77 19.4346 137.608 21.5218 139.236 23.0739L140.616 21.6261ZM138.649 16.8493L138.616 15.3973L136.617 15.4427L136.65 16.8947L138.649 16.8493ZM138.616 15.4427L138.649 13.9907L136.65 13.9453L136.617 15.3973L138.616 15.4427ZM138.648 14.016C138.748 11.9405 139.434 10.3869 140.644 9.25219L139.275 7.79381C137.624 9.34311 136.771 11.4195 136.65 13.92L138.648 14.016ZM140.644 9.25219C141.839 8.13019 143.547 7.51 145.899 7.51V5.51C143.191 5.51 140.939 6.23181 139.275 7.79381L140.644 9.25219ZM145.899 7.51C148.251 7.51 149.959 8.13019 151.155 9.25219L152.524 7.79381C150.859 6.23181 148.607 5.51 145.899 5.51V7.51ZM151.155 9.25219C152.364 10.3869 153.051 11.9405 153.15 14.016L155.148 13.92C155.028 11.4195 154.174 9.34311 152.524 7.79381L151.155 9.25219ZM153.153 14.051C153.171 14.268 153.182 14.7129 153.182 15.42H155.182C155.182 14.7191 155.172 14.196 155.146 13.885L153.153 14.051ZM153.182 15.42C153.182 16.1271 153.171 16.572 153.153 16.7889L155.146 16.955C155.172 16.644 155.182 16.1209 155.182 15.42H153.182ZM153.15 16.8244C153.05 18.9294 152.37 20.4942 151.182 21.6261L152.562 23.0739C154.191 21.5218 155.028 19.4346 155.148 16.9196L153.15 16.8244ZM151.188 21.6205C150.02 22.7153 148.306 23.33 145.899 23.33V25.33C148.641 25.33 150.908 24.6247 152.556 23.0795L151.188 21.6205ZM145.899 22.063C147.288 22.063 148.49 21.6205 149.356 20.6341L147.854 19.3139C147.445 19.7795 146.842 20.063 145.899 20.063V22.063ZM149.366 20.6229C150.201 19.6442 150.588 18.3072 150.66 16.7531L148.662 16.6609C148.602 17.9668 148.286 18.8078 147.844 19.3251L149.366 20.6229ZM150.656 16.8065C150.684 16.5291 150.694 16.0511 150.694 15.42H148.694C148.694 16.0649 148.682 16.4449 148.666 16.6075L150.656 16.8065ZM150.694 15.42C150.694 14.7889 150.684 14.3109 150.656 14.0335L148.666 14.2325C148.682 14.3951 148.694 14.7751 148.694 15.42H150.694ZM150.66 14.0869C150.589 12.5351 150.202 11.2006 149.356 10.2389L147.854 11.5591C148.285 12.0494 148.602 12.8709 148.662 14.1791L150.66 14.0869ZM149.366 10.2501C148.502 9.23734 147.298 8.777 145.899 8.777V10.777C146.833 10.777 147.432 11.0647 147.844 11.5479L149.366 10.2501ZM145.899 8.777C144.501 8.777 143.296 9.23734 142.432 10.2501L143.954 11.5479C144.366 11.0647 144.966 10.777 145.899 10.777V8.777ZM142.442 10.2389C141.597 11.2006 141.21 12.5351 141.138 14.0869L143.136 14.1791C143.197 12.8709 143.514 12.0494 143.944 11.5591L142.442 10.2389ZM141.138 14.1074L141.105 15.3944L143.104 15.4456L143.137 14.1586L141.138 14.1074ZM141.105 15.4456L141.138 16.7326L143.137 16.6814L143.104 15.3944L141.105 15.4456ZM141.138 16.7531C141.21 18.3072 141.598 19.6442 142.432 20.6229L143.954 19.3251C143.513 18.8078 143.196 17.9668 143.136 16.6609L141.138 16.7531ZM142.442 20.6341C143.309 21.6205 144.51 22.063 145.899 22.063V20.063C144.956 20.063 144.354 19.7795 143.944 19.3139L142.442 20.6341ZM160.875 22.35L160.185 23.0739L160.191 23.0795L160.875 22.35ZM158.598 16.872L157.598 16.8947L157.598 16.9071L157.599 16.9196L158.598 16.872ZM158.565 15.42L157.565 15.3973L157.564 15.42L157.565 15.4427L158.565 15.42ZM158.598 13.968L157.599 13.92L157.598 13.9326L157.598 13.9453L158.598 13.968ZM160.908 8.523L161.592 9.25219L160.908 8.523ZM172.788 8.523L172.103 9.25219V9.25219L172.788 8.523ZM175.098 13.968L174.099 14.016L174.1 14.0336L174.101 14.051L175.098 13.968ZM175.098 16.872L174.101 16.7889L174.1 16.8067L174.099 16.8244L175.098 16.872ZM172.821 22.35L173.505 23.0796L173.51 23.0739L172.821 22.35ZM169.554 19.974L170.305 20.6341L170.31 20.6286L170.314 20.6229L169.554 19.974ZM170.61 16.707L169.615 16.6075L169.612 16.6341L169.611 16.6609L170.61 16.707ZM170.61 14.133L169.611 14.1791L169.612 14.2059L169.615 14.2325L170.61 14.133ZM169.554 10.899L168.793 11.5479L168.798 11.5536L168.802 11.5591L169.554 10.899ZM164.142 10.899L164.893 11.5591L164.898 11.5536L164.902 11.5479L164.142 10.899ZM163.086 14.133L162.087 14.0869L162.086 14.0971L162.086 14.1074L163.086 14.133ZM163.053 15.42L162.053 15.3944L162.052 15.42L162.053 15.4456L163.053 15.42ZM163.086 16.707L162.086 16.7326L162.086 16.7429L162.087 16.7531L163.086 16.707ZM164.142 19.974L163.381 20.6229L163.385 20.6286L163.39 20.6341L164.142 19.974ZM166.848 23.33C164.441 23.33 162.726 22.7153 161.558 21.6205L160.191 23.0795C161.839 24.6247 164.106 25.33 166.848 25.33V23.33ZM161.564 21.6261C160.377 20.4942 159.697 18.9294 159.596 16.8244L157.599 16.9196C157.718 19.4346 158.556 21.5218 160.185 23.0739L161.564 21.6261ZM159.597 16.8493L159.564 15.3973L157.565 15.4427L157.598 16.8947L159.597 16.8493ZM159.564 15.4427L159.597 13.9907L157.598 13.9453L157.565 15.3973L159.564 15.4427ZM159.596 14.016C159.696 11.9405 160.383 10.3869 161.592 9.25219L160.223 7.79381C158.572 9.34311 157.719 11.4195 157.599 13.92L159.596 14.016ZM161.592 9.25219C162.787 8.13019 164.495 7.51 166.848 7.51V5.51C164.14 5.51 161.888 6.23181 160.223 7.79381L161.592 9.25219ZM166.848 7.51C169.2 7.51 170.908 8.13019 172.103 9.25219L173.472 7.79381C171.807 6.23181 169.555 5.51 166.848 5.51V7.51ZM172.103 9.25219C173.312 10.3869 173.999 11.9405 174.099 14.016L176.096 13.92C175.976 11.4195 175.123 9.34311 173.472 7.79381L172.103 9.25219ZM174.101 14.051C174.119 14.268 174.131 14.7129 174.131 15.42H176.131C176.131 14.7191 176.12 14.196 176.094 13.885L174.101 14.051ZM174.131 15.42C174.131 16.1271 174.119 16.572 174.101 16.7889L176.094 16.955C176.12 16.644 176.131 16.1209 176.131 15.42H174.131ZM174.099 16.8244C173.998 18.9294 173.318 20.4942 172.131 21.6261L173.51 23.0739C175.139 21.5218 175.977 19.4346 176.096 16.9196L174.099 16.8244ZM172.137 21.6205C170.969 22.7153 169.254 23.33 166.848 23.33V25.33C169.589 25.33 171.856 24.6247 173.504 23.0795L172.137 21.6205ZM166.848 22.063C168.236 22.063 169.438 21.6205 170.305 20.6341L168.802 19.3139C168.393 19.7795 167.791 20.063 166.848 20.063V22.063ZM170.314 20.6229C171.149 19.6442 171.537 18.3072 171.608 16.7531L169.611 16.6609C169.55 17.9668 169.234 18.8078 168.793 19.3251L170.314 20.6229ZM171.605 16.8065C171.632 16.5291 171.643 16.0511 171.643 15.42H169.643C169.643 16.0649 169.631 16.4449 169.615 16.6075L171.605 16.8065ZM171.643 15.42C171.643 14.7889 171.632 14.3109 171.605 14.0335L169.615 14.2325C169.631 14.3951 169.643 14.7751 169.643 15.42H171.643ZM171.608 14.0869C171.537 12.5351 171.15 11.2006 170.305 10.2389L168.802 11.5591C169.233 12.0494 169.55 12.8709 169.611 14.1791L171.608 14.0869ZM170.314 10.2501C169.451 9.23734 168.246 8.777 166.848 8.777V10.777C167.781 10.777 168.38 11.0647 168.793 11.5479L170.314 10.2501ZM166.848 8.777C165.449 8.777 164.244 9.23734 163.381 10.2501L164.902 11.5479C165.315 11.0647 165.914 10.777 166.848 10.777V8.777ZM163.39 10.2389C162.545 11.2006 162.158 12.5351 162.087 14.0869L164.084 14.1791C164.145 12.8709 164.462 12.0494 164.893 11.5591L163.39 10.2389ZM162.086 14.1074L162.053 15.3944L164.052 15.4456L164.085 14.1586L162.086 14.1074ZM162.053 15.4456L162.086 16.7326L164.085 16.6814L164.052 15.3944L162.053 15.4456ZM162.087 16.7531C162.158 18.3072 162.546 19.6442 163.381 20.6229L164.902 19.3251C164.461 18.8078 164.145 17.9668 164.084 16.6609L162.087 16.7531ZM163.39 20.6341C164.257 21.6205 165.459 22.063 166.848 22.063V20.063C165.904 20.063 165.302 19.7795 164.893 19.3139L163.39 20.6341ZM181.46 22.185L180.691 22.824L181.46 22.185ZM179.546 16.476L178.546 16.5063L178.547 16.513L179.546 16.476ZM179.513 15.387L178.513 15.3558L178.512 15.3865L178.513 15.4173L179.513 15.387ZM179.546 14.331L180.545 14.3622L180.545 14.3596L179.546 14.331ZM181.427 8.688L180.659 8.04779L180.653 8.05476L181.427 8.688ZM191.657 8.688L190.9 9.34162L192.657 11.3758V8.688H191.657ZM191.888 0.801L192.539 1.56026L192.568 1.53526L192.595 1.50811L191.888 0.801ZM195.815 0.801L195.056 1.45179L195.106 1.51019L195.164 1.56026L195.815 0.801ZM195.815 23.769L195.108 23.0619L195.081 23.0891L195.056 23.1182L195.815 23.769ZM191.855 21.987H192.855V19.144L191.075 21.361L191.855 21.987ZM190.634 19.578L191.431 20.1814L190.634 19.578ZM191.657 16.575L190.66 16.492L190.659 16.5057L190.658 16.5195L191.657 16.575ZM191.657 14.034L190.658 14.074L190.658 14.0955L190.66 14.117L191.657 14.034ZM190.601 11.229L189.822 11.8563L189.832 11.8682L189.842 11.8798L190.601 11.229ZM184.001 14.43L183.002 14.3774L183.002 14.3871L183.001 14.3967L184.001 14.43ZM183.968 15.42L182.968 15.3867L182.967 15.42L182.968 15.4533L183.968 15.42ZM184.001 16.41L183.001 16.4433L183.002 16.4529L183.002 16.4626L184.001 16.41ZM186.575 23.33C184.586 23.33 183.19 22.7022 182.229 21.546L180.691 22.824C182.106 24.5278 184.12 25.33 186.575 25.33V23.33ZM182.229 21.546C181.217 20.3281 180.627 18.6566 180.545 16.439L178.547 16.513C178.64 19.0474 179.326 21.1819 180.691 22.824L182.229 21.546ZM180.545 16.4457L180.512 15.3567L178.513 15.4173L178.546 16.5063L180.545 16.4457ZM180.512 15.4182L180.545 14.3622L178.546 14.2998L178.513 15.3558L180.512 15.4182ZM180.545 14.3596C180.607 12.2181 181.183 10.5656 182.201 9.32124L180.653 8.05476C179.295 9.71442 178.617 11.8239 178.546 14.3024L180.545 14.3596ZM182.195 9.32818C183.181 8.14518 184.592 7.51 186.575 7.51V5.51C184.114 5.51 182.093 6.32681 180.659 8.04782L182.195 9.32818ZM186.575 7.51C188.455 7.51 189.859 8.13585 190.9 9.34162L192.414 8.03438C190.947 6.33615 188.963 5.51 186.575 5.51V7.51ZM192.657 8.688V1.362H190.657V8.688H192.657ZM192.657 1.362C192.657 1.34647 192.659 1.37246 192.639 1.421C192.617 1.47397 192.581 1.5238 192.539 1.56026L191.237 0.0417423C190.818 0.400673 190.657 0.890076 190.657 1.362H192.657ZM192.595 1.50811C192.586 1.51721 192.562 1.53689 192.524 1.55243C192.487 1.56788 192.458 1.57 192.449 1.57V-0.430001C191.967 -0.430001 191.524 -0.249773 191.181 0.0938945L192.595 1.50811ZM192.449 1.57H195.254V-0.430001H192.449V1.57ZM195.254 1.57C195.269 1.57 195.243 1.57241 195.195 1.55243C195.142 1.53061 195.092 1.49432 195.056 1.45179L196.574 0.150211C196.215 -0.268545 195.726 -0.430001 195.254 -0.430001V1.57ZM195.164 1.56026C195.122 1.5238 195.085 1.47397 195.063 1.421C195.043 1.37246 195.046 1.34647 195.046 1.362H197.046C197.046 0.890078 196.884 0.400675 196.466 0.0417438L195.164 1.56026ZM195.046 1.362V23.208H197.046V1.362H195.046ZM195.046 23.208C195.046 23.1989 195.048 23.17 195.063 23.1325C195.079 23.0948 195.099 23.071 195.108 23.0619L196.522 24.4761C196.866 24.1324 197.046 23.6902 197.046 23.208H195.046ZM195.056 23.1182C195.092 23.0757 195.142 23.0394 195.195 23.0176C195.243 22.9976 195.269 23 195.254 23V25C195.726 25 196.215 24.8385 196.574 24.4198L195.056 23.1182ZM195.254 23H192.647V25H195.254V23ZM192.647 23C192.656 23 192.685 23.0021 192.722 23.0176C192.76 23.0331 192.784 23.0528 192.793 23.0619L191.379 24.4761C191.722 24.8198 192.165 25 192.647 25V23ZM192.793 23.0619C192.802 23.071 192.822 23.0948 192.837 23.1325C192.853 23.17 192.855 23.1989 192.855 23.208H190.855C190.855 23.6902 191.035 24.1324 191.379 24.4761L192.793 23.0619ZM192.855 23.208V21.987H190.855V23.208H192.855ZM191.075 21.361C190.037 22.6536 188.583 23.33 186.575 23.33V25.33C189.099 25.33 191.164 24.4444 192.635 22.613L191.075 21.361ZM187.796 21.799C189.298 21.799 190.579 21.3071 191.431 20.1814L189.836 18.9746C189.456 19.4769 188.845 19.799 187.796 19.799V21.799ZM191.431 20.1814C192.186 19.1839 192.58 17.9834 192.655 16.6305L190.658 16.5195C190.602 17.5426 190.314 18.3441 189.836 18.9746L191.431 20.1814ZM192.653 16.658C192.679 16.3493 192.69 15.8844 192.69 15.288H190.69C190.69 15.8796 190.679 16.2727 190.66 16.492L192.653 16.658ZM192.69 15.288C192.69 14.7124 192.679 14.2591 192.653 13.951L190.66 14.117C190.679 14.3369 190.69 14.7196 190.69 15.288H192.69ZM192.656 13.994C192.604 12.6897 192.179 11.534 191.36 10.5782L189.842 11.8798C190.342 12.464 190.622 13.1783 190.658 14.074L192.656 13.994ZM191.38 10.6017C190.511 9.52393 189.26 9.041 187.796 9.041V11.041C188.796 11.041 189.414 11.3501 189.822 11.8563L191.38 10.6017ZM187.796 9.041C186.39 9.041 185.174 9.48372 184.309 10.4842C183.473 11.4507 183.085 12.8012 183.002 14.3774L184.999 14.4826C185.07 13.1328 185.392 12.2888 185.822 11.7923C186.221 11.3298 186.826 11.041 187.796 11.041V9.041ZM183.001 14.3967L182.968 15.3867L184.967 15.4533L185 14.4633L183.001 14.3967ZM182.968 15.4533L183.001 16.4433L185 16.3767L184.967 15.3867L182.968 15.4533ZM183.002 16.4626C183.085 18.0388 183.473 19.3893 184.309 20.3558C185.174 21.3563 186.39 21.799 187.796 21.799V19.799C186.826 19.799 186.221 19.5102 185.822 19.0477C185.392 18.5512 185.07 17.7072 184.999 16.3574L183.002 16.4626Z" fill="black"/>
</svg>
